<svg width="20" height="20" viewBox="0 0 20 20" fill="none" xmlns="http://www.w3.org/2000/svg">
<path d="M0.539499 10.8236L10.7301 19.5242C10.8083 19.5906 10.9077 19.6273 11.0122 19.6264L13.3826 19.6072C13.5809 19.6056 13.6699 19.3584 13.5189 19.2311L4.07274 11.1646L19.7472 11.0374C19.8651 11.0364 19.9607 10.9392 19.9598 10.8214L19.9467 9.21428C19.9458 9.09643 19.8486 9.00078 19.7307 9.00174L4.0589 9.12894L13.3729 0.910218C13.5218 0.777754 13.4287 0.534752 13.2305 0.53636L10.7797 0.556252C10.7288 0.556665 10.6781 0.575828 10.6409 0.610952L0.528977 9.52724C0.436907 9.60863 0.363368 9.70882 0.313328 9.82105C0.263288 9.93329 0.237909 10.055 0.238907 10.1778C0.239904 10.3007 0.267254 10.4219 0.319109 10.5334C0.370964 10.6448 0.44612 10.7437 0.539499 10.8236Z" fill="#01BEB7"/>
</svg>
